<?xml version="1.0" encoding="UTF-8" standalone="no"?>
<!DOCTYPE svg PUBLIC "-//W3C//DTD SVG 1.1//EN" "http://www.w3.org/Graphics/SVG/1.1/DTD/svg11.dtd">
<svg width="100%" height="100%" viewBox="0 0 44 10" version="1.1" xmlns="http://www.w3.org/2000/svg" xmlns:xlink="http://www.w3.org/1999/xlink" xml:space="preserve" xmlns:serif="http://www.serif.com/" style="fill-rule:evenodd;clip-rule:evenodd;stroke-linejoin:round;stroke-miterlimit:1.41421;">
    <g transform="matrix(1,0,0,1,8.22364,6.17179)">
        <path d="M5.406,-3.36L5.406,-4.764L0.714,-4.764L-0.114,-0.12L1.422,-0.12C1.59,-0.352 1.77,-0.522 1.962,-0.63C2.154,-0.738 2.402,-0.792 2.706,-0.792C2.938,-0.792 3.142,-0.752 3.318,-0.672C3.494,-0.592 3.646,-0.48 3.774,-0.336C3.902,-0.192 3.998,-0.024 4.062,0.168C4.126,0.36 4.158,0.564 4.158,0.78C4.158,0.988 4.124,1.19 4.056,1.386C3.988,1.582 3.892,1.754 3.768,1.902C3.644,2.05 3.492,2.17 3.312,2.262C3.132,2.354 2.93,2.4 2.706,2.4C2.322,2.4 2.006,2.286 1.758,2.058C1.51,1.83 1.366,1.524 1.326,1.14L-0.378,1.14C-0.37,1.58 -0.28,1.966 -0.108,2.298C0.064,2.63 0.294,2.908 0.582,3.132C0.87,3.356 1.2,3.522 1.572,3.63C1.944,3.738 2.334,3.792 2.742,3.792C3.166,3.8 3.566,3.73 3.942,3.582C4.318,3.434 4.648,3.224 4.932,2.952C5.216,2.68 5.442,2.358 5.61,1.986C5.778,1.614 5.862,1.212 5.862,0.78C5.862,0.388 5.804,0.018 5.688,-0.33C5.572,-0.678 5.404,-0.98 5.184,-1.236C4.964,-1.492 4.694,-1.696 4.374,-1.848C4.054,-2 3.686,-2.076 3.27,-2.076C2.934,-2.076 2.634,-2.026 2.37,-1.926C2.106,-1.826 1.858,-1.66 1.626,-1.428L1.602,-1.452L1.938,-3.36L5.406,-3.36Z" style="fill-rule:nonzero;"/>
        <path d="M9.318,-0.408C9.102,-0.408 8.912,-0.454 8.748,-0.546C8.584,-0.638 8.45,-0.758 8.346,-0.906C8.242,-1.054 8.164,-1.222 8.112,-1.41C8.06,-1.598 8.034,-1.792 8.034,-1.992C8.034,-2.184 8.062,-2.372 8.118,-2.556C8.174,-2.74 8.258,-2.904 8.37,-3.048C8.482,-3.192 8.618,-3.308 8.778,-3.396C8.938,-3.484 9.118,-3.528 9.318,-3.528C9.534,-3.528 9.726,-3.484 9.894,-3.396C10.062,-3.308 10.204,-3.19 10.32,-3.042C10.436,-2.894 10.524,-2.726 10.584,-2.538C10.644,-2.35 10.674,-2.16 10.674,-1.968C10.674,-1.76 10.646,-1.562 10.59,-1.374C10.534,-1.186 10.45,-1.02 10.338,-0.876C10.226,-0.732 10.086,-0.618 9.918,-0.534C9.75,-0.45 9.55,-0.408 9.318,-0.408ZM8.094,1.476L6.474,1.476C6.522,1.844 6.622,2.172 6.774,2.46C6.926,2.748 7.122,2.992 7.362,3.192C7.602,3.392 7.878,3.542 8.19,3.642C8.502,3.742 8.838,3.792 9.198,3.792C9.798,3.792 10.306,3.662 10.722,3.402C11.138,3.142 11.478,2.802 11.742,2.382C12.006,1.962 12.198,1.492 12.318,0.972C12.438,0.452 12.498,-0.068 12.498,-0.588C12.498,-1.116 12.45,-1.64 12.354,-2.16C12.258,-2.68 12.086,-3.146 11.838,-3.558C11.59,-3.97 11.26,-4.302 10.848,-4.554C10.436,-4.806 9.91,-4.932 9.27,-4.932C8.83,-4.932 8.43,-4.852 8.07,-4.692C7.71,-4.532 7.4,-4.314 7.14,-4.038C6.88,-3.762 6.68,-3.438 6.54,-3.066C6.4,-2.694 6.33,-2.292 6.33,-1.86C6.33,-1.524 6.382,-1.192 6.486,-0.864C6.59,-0.536 6.754,-0.244 6.978,0.012C7.218,0.276 7.51,0.486 7.854,0.642C8.198,0.798 8.55,0.876 8.91,0.876C9.318,0.876 9.678,0.804 9.99,0.66C10.302,0.516 10.574,0.276 10.806,-0.06L10.83,-0.036C10.814,0.196 10.78,0.46 10.728,0.756C10.676,1.052 10.59,1.33 10.47,1.59C10.35,1.85 10.19,2.07 9.99,2.25C9.79,2.43 9.534,2.52 9.222,2.52C8.926,2.52 8.678,2.416 8.478,2.208C8.278,2 8.15,1.756 8.094,1.476Z" style="fill-rule:nonzero;"/>
        <path d="M18.198,0.792L16.374,0.792C16.366,1.32 16.462,1.776 16.662,2.16C16.862,2.544 17.132,2.86 17.472,3.108C17.812,3.356 18.204,3.538 18.648,3.654C19.092,3.77 19.55,3.828 20.022,3.828C20.606,3.828 21.12,3.76 21.564,3.624C22.008,3.488 22.38,3.298 22.68,3.054C22.98,2.81 23.206,2.52 23.358,2.184C23.51,1.848 23.586,1.484 23.586,1.092C23.586,0.612 23.484,0.218 23.28,-0.09C23.076,-0.398 22.834,-0.644 22.554,-0.828C22.274,-1.012 21.992,-1.146 21.708,-1.23C21.424,-1.314 21.202,-1.372 21.042,-1.404C20.506,-1.54 20.072,-1.652 19.74,-1.74C19.408,-1.828 19.148,-1.916 18.96,-2.004C18.772,-2.092 18.646,-2.188 18.582,-2.292C18.518,-2.396 18.486,-2.532 18.486,-2.7C18.486,-2.884 18.526,-3.036 18.606,-3.156C18.686,-3.276 18.788,-3.376 18.912,-3.456C19.036,-3.536 19.174,-3.592 19.326,-3.624C19.478,-3.656 19.63,-3.672 19.782,-3.672C20.014,-3.672 20.228,-3.652 20.424,-3.612C20.62,-3.572 20.794,-3.504 20.946,-3.408C21.098,-3.312 21.22,-3.18 21.312,-3.012C21.404,-2.844 21.458,-2.632 21.474,-2.376L23.298,-2.376C23.298,-2.872 23.204,-3.294 23.016,-3.642C22.828,-3.99 22.574,-4.276 22.254,-4.5C21.934,-4.724 21.568,-4.886 21.156,-4.986C20.744,-5.086 20.314,-5.136 19.866,-5.136C19.482,-5.136 19.098,-5.084 18.714,-4.98C18.33,-4.876 17.986,-4.716 17.682,-4.5C17.378,-4.284 17.132,-4.014 16.944,-3.69C16.756,-3.366 16.662,-2.984 16.662,-2.544C16.662,-2.152 16.736,-1.818 16.884,-1.542C17.032,-1.266 17.226,-1.036 17.466,-0.852C17.706,-0.668 17.978,-0.518 18.282,-0.402C18.586,-0.286 18.898,-0.188 19.218,-0.108C19.53,-0.02 19.838,0.06 20.142,0.132C20.446,0.204 20.718,0.288 20.958,0.384C21.198,0.48 21.392,0.6 21.54,0.744C21.688,0.888 21.762,1.076 21.762,1.308C21.762,1.524 21.706,1.702 21.594,1.842C21.482,1.982 21.342,2.092 21.174,2.172C21.006,2.252 20.826,2.306 20.634,2.334C20.442,2.362 20.262,2.376 20.094,2.376C19.846,2.376 19.606,2.346 19.374,2.286C19.142,2.226 18.94,2.134 18.768,2.01C18.596,1.886 18.458,1.724 18.354,1.524C18.25,1.324 18.198,1.08 18.198,0.792Z" style="fill-rule:nonzero;"/>
        <path d="M26.682,-2.568L26.682,-4.428L24.978,-4.428L24.978,-2.568L23.946,-2.568L23.946,-1.428L24.978,-1.428L24.978,2.232C24.978,2.544 25.03,2.796 25.134,2.988C25.238,3.18 25.38,3.328 25.56,3.432C25.74,3.536 25.948,3.606 26.184,3.642C26.42,3.678 26.67,3.696 26.934,3.696C27.102,3.696 27.274,3.692 27.45,3.684C27.626,3.676 27.786,3.66 27.93,3.636L27.93,2.316C27.85,2.332 27.766,2.344 27.678,2.352C27.59,2.36 27.498,2.364 27.402,2.364C27.114,2.364 26.922,2.316 26.826,2.22C26.73,2.124 26.682,1.932 26.682,1.644L26.682,-1.428L27.93,-1.428L27.93,-2.568L26.682,-2.568Z" style="fill-rule:nonzero;"/>
    </g>
</svg>
