<?xml version="1.0" encoding="UTF-8" standalone="no"?>
<!DOCTYPE svg PUBLIC "-//W3C//DTD SVG 1.1//EN" "http://www.w3.org/Graphics/SVG/1.1/DTD/svg11.dtd">
<svg width="100%" height="100%" viewBox="0 0 44 10" version="1.1" xmlns="http://www.w3.org/2000/svg" xmlns:xlink="http://www.w3.org/1999/xlink" xml:space="preserve" xmlns:serif="http://www.serif.com/" style="fill-rule:evenodd;clip-rule:evenodd;stroke-linejoin:round;stroke-miterlimit:1.41421;">
    <g transform="matrix(1,0,0,1,8.21764,6.17179)">
        <path d="M5.274,-3.828L5.274,-4.728L1.074,-4.728L0.282,-0.312L1.158,-0.264C1.358,-0.504 1.588,-0.698 1.848,-0.846C2.108,-0.994 2.406,-1.068 2.742,-1.068C3.03,-1.068 3.292,-1.02 3.528,-0.924C3.764,-0.828 3.966,-0.694 4.134,-0.522C4.302,-0.35 4.432,-0.146 4.524,0.09C4.616,0.326 4.662,0.584 4.662,0.864C4.662,1.2 4.614,1.494 4.518,1.746C4.422,1.998 4.292,2.208 4.128,2.376C3.964,2.544 3.772,2.67 3.552,2.754C3.332,2.838 3.102,2.88 2.862,2.88C2.606,2.88 2.372,2.842 2.16,2.766C1.948,2.69 1.764,2.582 1.608,2.442C1.452,2.302 1.328,2.138 1.236,1.95C1.144,1.762 1.09,1.56 1.074,1.344L0.054,1.344C0.062,1.728 0.138,2.072 0.282,2.376C0.426,2.68 0.622,2.934 0.87,3.138C1.118,3.342 1.404,3.498 1.728,3.606C2.052,3.714 2.398,3.768 2.766,3.768C3.262,3.768 3.696,3.69 4.068,3.534C4.44,3.378 4.75,3.168 4.998,2.904C5.246,2.64 5.432,2.338 5.556,1.998C5.68,1.658 5.742,1.308 5.742,0.948C5.742,0.46 5.67,0.034 5.526,-0.33C5.382,-0.694 5.186,-0.998 4.938,-1.242C4.69,-1.486 4.398,-1.668 4.062,-1.788C3.726,-1.908 3.37,-1.968 2.994,-1.968C2.706,-1.968 2.416,-1.918 2.124,-1.818C1.832,-1.718 1.594,-1.564 1.41,-1.356L1.386,-1.38L1.842,-3.828L5.274,-3.828Z" style="fill-rule:nonzero;"/>
        <path d="M10.578,3.636L10.578,-4.872L9.798,-4.872C9.742,-4.552 9.638,-4.288 9.486,-4.08C9.334,-3.872 9.148,-3.708 8.928,-3.588C8.708,-3.468 8.462,-3.386 8.19,-3.342C7.918,-3.298 7.638,-3.276 7.35,-3.276L7.35,-2.46L9.558,-2.46L9.558,3.636L10.578,3.636Z" style="fill-rule:nonzero;"/>
        <path d="M22.206,-2.424L23.286,-2.424C23.27,-2.896 23.18,-3.302 23.016,-3.642C22.852,-3.982 22.628,-4.264 22.344,-4.488C22.06,-4.712 21.73,-4.876 21.354,-4.98C20.978,-5.084 20.57,-5.136 20.13,-5.136C19.738,-5.136 19.356,-5.086 18.984,-4.986C18.612,-4.886 18.28,-4.734 17.988,-4.53C17.696,-4.326 17.462,-4.066 17.286,-3.75C17.11,-3.434 17.022,-3.06 17.022,-2.628C17.022,-2.236 17.1,-1.91 17.256,-1.65C17.412,-1.39 17.62,-1.178 17.88,-1.014C18.14,-0.85 18.434,-0.718 18.762,-0.618C19.09,-0.518 19.424,-0.43 19.764,-0.354C20.104,-0.278 20.438,-0.204 20.766,-0.132C21.094,-0.06 21.388,0.034 21.648,0.15C21.908,0.266 22.116,0.416 22.272,0.6C22.428,0.784 22.506,1.024 22.506,1.32C22.506,1.632 22.442,1.888 22.314,2.088C22.186,2.288 22.018,2.446 21.81,2.562C21.602,2.678 21.368,2.76 21.108,2.808C20.848,2.856 20.59,2.88 20.334,2.88C20.014,2.88 19.702,2.84 19.398,2.76C19.094,2.68 18.828,2.556 18.6,2.388C18.372,2.22 18.188,2.006 18.048,1.746C17.908,1.486 17.838,1.176 17.838,0.816L16.758,0.816C16.758,1.336 16.852,1.786 17.04,2.166C17.228,2.546 17.484,2.858 17.808,3.102C18.132,3.346 18.508,3.528 18.936,3.648C19.364,3.768 19.818,3.828 20.298,3.828C20.69,3.828 21.084,3.782 21.48,3.69C21.876,3.598 22.234,3.45 22.554,3.246C22.874,3.042 23.136,2.778 23.34,2.454C23.544,2.13 23.646,1.74 23.646,1.284C23.646,0.86 23.568,0.508 23.412,0.228C23.256,-0.052 23.048,-0.284 22.788,-0.468C22.528,-0.652 22.234,-0.798 21.906,-0.906C21.578,-1.014 21.244,-1.108 20.904,-1.188C20.564,-1.268 20.23,-1.342 19.902,-1.41C19.574,-1.478 19.28,-1.564 19.02,-1.668C18.76,-1.772 18.552,-1.906 18.396,-2.07C18.24,-2.234 18.162,-2.448 18.162,-2.712C18.162,-2.992 18.216,-3.226 18.324,-3.414C18.432,-3.602 18.576,-3.752 18.756,-3.864C18.936,-3.976 19.142,-4.056 19.374,-4.104C19.606,-4.152 19.842,-4.176 20.082,-4.176C20.674,-4.176 21.16,-4.038 21.54,-3.762C21.92,-3.486 22.142,-3.04 22.206,-2.424Z" style="fill-rule:nonzero;"/>
        <path d="M26.274,-2.568L26.274,-4.428L25.254,-4.428L25.254,-2.568L24.198,-2.568L24.198,-1.668L25.254,-1.668L25.254,2.28C25.254,2.568 25.282,2.8 25.338,2.976C25.394,3.152 25.48,3.288 25.596,3.384C25.712,3.48 25.864,3.546 26.052,3.582C26.24,3.618 26.466,3.636 26.73,3.636L27.51,3.636L27.51,2.736L27.042,2.736C26.882,2.736 26.752,2.73 26.652,2.718C26.552,2.706 26.474,2.68 26.418,2.64C26.362,2.6 26.324,2.544 26.304,2.472C26.284,2.4 26.274,2.304 26.274,2.184L26.274,-1.668L27.51,-1.668L27.51,-2.568L26.274,-2.568Z" style="fill-rule:nonzero;"/>
    </g>
</svg>
