<?xml version="1.0" encoding="UTF-8" standalone="no"?>
<!DOCTYPE svg PUBLIC "-//W3C//DTD SVG 1.1//EN" "http://www.w3.org/Graphics/SVG/1.1/DTD/svg11.dtd">
<svg width="100%" height="100%" viewBox="0 0 44 66" version="1.1" xmlns="http://www.w3.org/2000/svg" xmlns:xlink="http://www.w3.org/1999/xlink" xml:space="preserve" xmlns:serif="http://www.serif.com/" style="fill-rule:evenodd;clip-rule:evenodd;stroke-linejoin:round;stroke-miterlimit:1.41421;">
    <g id="Transfer-via-pedestrian-link" serif:id="Transfer via pedestrian link">
        <path d="M44,28L17,28L17,5L44,5L44,28ZM5,28L0,28L0,5L5,5L5,28Z" style="fill:none;"/>
        <clipPath id="_clip1">
            <path d="M44,28L17,28L17,5L44,5L44,28ZM5,28L0,28L0,5L5,5L5,28Z"/>
        </clipPath>
        <g clip-path="url(#_clip1)">
            <g>
                <g transform="matrix(1,0,0,0.995339,9.57567e-16,-0.0514786)">
                    <rect x="0" y="6.08" width="44" height="10.047" style="fill:rgb(255,146,0);"/>
                </g>
                <g transform="matrix(1,0,0,1.12349,-3.55271e-15,-2.33946)">
                    <rect x="0" y="17.214" width="44" height="8.901" style="fill:rgb(20,151,234);"/>
                </g>
            </g>
        </g>
        <g>
            <g transform="matrix(0.9966,0,0,1.05079,0.071741,-2.22362)">
                <rect x="16.986" y="43.038" width="6.02" height="1.903"/>
            </g>
            <g transform="matrix(0.910696,0,0,0.993241,2.04808,0.253103)">
                <rect x="20.81" y="27.936" width="2.196" height="15.102"/>
            </g>
        </g>
        <g transform="matrix(0.982502,0,0,1,0.235205,0)">
            <rect x="5.867" y="0" width="10.178" height="66" style="fill:rgb(0,186,84);"/>
        </g>
        <g transform="matrix(1.19808,0,0,1.19808,-4.02168,5.25466)">
            <circle cx="21.72" cy="4.795" r="3.339"/>
        </g>
        <g transform="matrix(1.19808,0,0,1.19808,-4.02168,16.2547)">
            <circle cx="21.72" cy="4.795" r="3.339"/>
        </g>
        <g transform="matrix(1.19808,0,0,1.19808,-15.0663,38.2547)">
            <circle cx="21.72" cy="4.795" r="3.339"/>
        </g>
        <g transform="matrix(1,0,0,1,0.35775,-14.7626)">
            <path d="M28.541,21.955L28.541,29.571L30.109,29.571L30.109,24.227L30.13,24.227L31.997,29.571L33.288,29.571L35.154,24.173L35.176,24.173L35.176,29.571L36.744,29.571L36.744,21.955L34.386,21.955L32.701,27.192L32.68,27.192L30.898,21.955L28.541,21.955Z" style="fill-rule:nonzero;"/>
        </g>
        <g transform="matrix(1,0,0,1,0.35775,-3.76264)">
            <path d="M28.541,21.955L28.541,29.571L34.322,29.571L34.322,28.163L30.216,28.163L30.216,26.296L33.906,26.296L33.906,24.995L30.216,24.995L30.216,23.363L34.237,23.363L34.237,21.955L28.541,21.955Z" style="fill-rule:nonzero;"/>
        </g>
        <g transform="matrix(1,0,0,1,-20.2609,29.168)">
            <path d="M31.346,25.699C31.538,25.699 31.707,25.74 31.853,25.821C31.999,25.903 32.118,26.01 32.21,26.141C32.303,26.273 32.372,26.422 32.418,26.589C32.464,26.756 32.488,26.929 32.488,27.107C32.488,27.277 32.463,27.444 32.413,27.608C32.363,27.772 32.288,27.917 32.189,28.045C32.089,28.173 31.97,28.276 31.832,28.355C31.693,28.433 31.531,28.472 31.346,28.472C31.154,28.472 30.984,28.433 30.834,28.355C30.685,28.276 30.559,28.172 30.456,28.04C30.352,27.908 30.274,27.759 30.221,27.592C30.168,27.425 30.141,27.256 30.141,27.085C30.141,26.9 30.166,26.724 30.216,26.557C30.265,26.39 30.34,26.243 30.44,26.115C30.539,25.987 30.665,25.885 30.818,25.811C30.971,25.736 31.147,25.699 31.346,25.699ZM32.434,24.024L33.874,24.024C33.832,23.69 33.743,23.395 33.608,23.139C33.472,22.883 33.298,22.668 33.085,22.493C32.872,22.319 32.626,22.186 32.349,22.093C32.072,22.001 31.773,21.955 31.453,21.955C30.92,21.955 30.468,22.072 30.098,22.307C29.728,22.541 29.426,22.845 29.192,23.219C28.957,23.592 28.786,24.01 28.68,24.472C28.573,24.934 28.52,25.396 28.52,25.859C28.52,26.335 28.562,26.803 28.648,27.261C28.733,27.72 28.886,28.131 29.106,28.493C29.327,28.856 29.622,29.149 29.992,29.373C30.361,29.597 30.827,29.709 31.389,29.709C31.78,29.709 32.136,29.64 32.456,29.501C32.776,29.363 33.051,29.171 33.282,28.925C33.513,28.68 33.691,28.392 33.816,28.061C33.94,27.731 34.002,27.373 34.002,26.989C34.002,26.691 33.956,26.396 33.864,26.104C33.771,25.812 33.625,25.553 33.426,25.325C33.213,25.091 32.953,24.904 32.648,24.765C32.342,24.627 32.029,24.557 31.709,24.557C31.346,24.557 31.026,24.621 30.749,24.749C30.472,24.877 30.23,25.091 30.024,25.389L30.002,25.368C30.009,25.162 30.038,24.927 30.088,24.664C30.137,24.401 30.216,24.154 30.322,23.923C30.429,23.692 30.573,23.496 30.754,23.336C30.936,23.176 31.161,23.096 31.432,23.096C31.695,23.096 31.915,23.188 32.093,23.373C32.271,23.558 32.384,23.775 32.434,24.024Z" style="fill-rule:nonzero;"/>
        </g>
    </g>
</svg>
