<?xml version="1.0" encoding="UTF-8" standalone="no"?>
<!DOCTYPE svg PUBLIC "-//W3C//DTD SVG 1.1//EN" "http://www.w3.org/Graphics/SVG/1.1/DTD/svg11.dtd">
<svg width="100%" height="100%" viewBox="0 0 358 446" version="1.1" xmlns="http://www.w3.org/2000/svg" xmlns:xlink="http://www.w3.org/1999/xlink" xml:space="preserve" style="fill-rule:evenodd;clip-rule:evenodd;stroke-linejoin:round;stroke-miterlimit:1.41421;">
    <g>
        <path d="M179,5.477C178.423,5.472 177.848,5.47 177.276,5.47L180.725,5.47C180.153,5.47 179.578,5.472 179,5.477C219.103,5.796 273.451,17.108 296.128,26.557C319.132,36.142 334.468,45.727 339.26,69.689L356.512,202.529L356.512,385.574L326.8,385.574L326.8,414.279C326.8,449.28 275.582,449.28 275.582,414.279L275.582,385.574L82.419,385.574L82.419,414.279C82.418,449.28 31.2,449.28 31.201,414.279L31.201,385.574L1.489,385.574L1.489,202.529L18.741,69.689C23.532,45.727 38.868,36.142 61.873,26.557C84.549,17.108 138.897,5.796 179,5.477ZM301.17,328.192C314.738,328.193 325.738,317.191 325.738,303.622C325.738,290.055 314.738,279.053 301.17,279.052C287.602,279.053 276.601,290.055 276.601,303.622C276.601,317.191 287.602,328.193 301.17,328.192ZM56.831,328.192C43.262,328.193 32.262,317.191 32.263,303.622C32.262,290.055 43.262,279.053 56.831,279.052C70.398,279.053 81.399,290.055 81.4,303.622C81.399,317.191 70.398,328.193 56.831,328.192ZM290.797,82.357L67.204,82.357C52.015,82.357 48.048,90.074 46.204,101.779L32.776,198.127C31.523,207.363 34.194,216.53 46.954,216.529L311.047,216.529C323.806,216.53 326.477,207.363 325.225,198.127L311.797,101.779C309.953,90.074 305.985,82.357 290.797,82.357ZM252.036,39.017L105.965,39.017C91.586,39.017 91.586,60.583 105.965,60.583L252.036,60.583C266.414,60.583 266.414,39.017 252.036,39.017Z" style="fill:black;"/>
    </g>
</svg>
