<?xml version="1.0" encoding="UTF-8" standalone="no"?>
<!DOCTYPE svg PUBLIC "-//W3C//DTD SVG 1.1//EN" "http://www.w3.org/Graphics/SVG/1.1/DTD/svg11.dtd">
<svg width="100%" height="100%" viewBox="0 0 358 446" version="1.1" xmlns="http://www.w3.org/2000/svg" xmlns:xlink="http://www.w3.org/1999/xlink" xml:space="preserve" style="fill-rule:evenodd;clip-rule:evenodd;stroke-linejoin:round;stroke-miterlimit:1.41421;">
    <g transform="matrix(1,0,0,1,179.1,-362.845)">
        <path d="M1.625,368.315C-38.63,368.315 -94.224,379.817 -117.227,389.402C-140.232,398.987 -155.568,408.572 -160.359,432.534L-177.611,565.374L-177.611,748.419L-147.899,748.419L-147.899,777.124C-147.9,812.125 -96.682,812.125 -96.681,777.124L-96.681,748.419L96.482,748.419L96.482,777.124C96.482,812.125 147.7,812.125 147.7,777.124L147.7,748.419L177.412,748.419L177.412,565.374L160.16,432.534C155.368,408.572 140.032,398.987 117.028,389.402C94.024,379.817 38.43,368.315 -1.824,368.315" style="fill:black;fill-rule:nonzero;"/>
        <path d="M122.07,691.037C135.638,691.038 146.638,680.036 146.638,666.467C146.638,652.9 135.638,641.898 122.07,641.897C108.502,641.898 97.501,652.9 97.501,666.467C97.501,680.036 108.502,691.038 122.07,691.037Z" style="fill:white;fill-rule:nonzero;"/>
        <path d="M-122.269,691.037C-135.838,691.038 -146.838,680.036 -146.837,666.467C-146.838,652.9 -135.838,641.898 -122.269,641.897C-108.702,641.898 -97.701,652.9 -97.7,666.467C-97.701,680.036 -108.702,691.038 -122.269,691.037Z" style="fill:white;fill-rule:nonzero;"/>
        <path d="M-1.999,423.428L-73.135,423.428C-87.514,423.428 -87.514,401.862 -73.135,401.862L72.936,401.862C87.314,401.862 87.314,423.428 72.936,423.428L-1.999,423.428Z" style="fill:white;fill-rule:nonzero;"/>
        <path d="M-1.999,445.202L-111.896,445.202C-127.085,445.202 -131.052,452.919 -132.896,464.624L-146.324,560.972C-147.577,570.208 -144.906,579.375 -132.146,579.374L131.947,579.374C144.706,579.375 147.377,570.208 146.125,560.972L132.697,464.624C130.853,452.919 126.885,445.202 111.697,445.202L-1.999,445.202Z" style="fill:white;fill-rule:nonzero;"/>
    </g>
</svg>
