<?xml version="1.0" encoding="UTF-8" standalone="no"?>
<!DOCTYPE svg PUBLIC "-//W3C//DTD SVG 1.1//EN" "http://www.w3.org/Graphics/SVG/1.1/DTD/svg11.dtd">
<svg width="100%" height="100%" viewBox="0 0 218 218" version="1.1" xmlns="http://www.w3.org/2000/svg" xmlns:xlink="http://www.w3.org/1999/xlink" xml:space="preserve" style="fill-rule:evenodd;clip-rule:evenodd;stroke-linejoin:round;stroke-miterlimit:1.41421;">
    <g id="path3948" transform="matrix(0.997986,-4.92355e-19,-4.93357e-19,0.99797,-5.9087,-5.90684)">
        <path d="M21.175,5.925L209.096,5.925C217.492,5.925 224.361,12.794 224.361,21.183L224.361,209.107C224.361,217.503 217.492,224.368 209.096,224.368L21.175,224.368C12.786,224.368 5.921,217.503 5.921,209.107L5.921,21.183C5.921,12.794 12.786,5.925 21.175,5.925" style="fill:rgb(21,81,150);"/>
    </g>
    <g id="path3046" transform="matrix(1,0,0,1,-6.14063,-6.14062)">
        <path d="M91.541,56.829C99.744,56.071 106.115,49.004 106.115,40.742C106.115,31.849 98.862,24.596 89.972,24.596C81.078,24.596 73.821,31.849 73.821,40.742C73.821,43.455 74.58,46.232 75.839,48.567L81.593,129.526L140.856,129.547L165.159,186.496L197.064,173.98L192.125,162.214L174.268,168.656L150.752,114.367L95.648,114.734L94.9,104.482L134.785,104.496L134.785,89.327L93.376,89.309L91.541,56.829L91.541,56.829Z" style="fill:white;"/>
    </g>
    <g id="path3050" transform="matrix(1,0,0,1,-6.14063,-6.14062)">
        <path d="M151.143,172.943C141.146,192.712 120.205,205.74 97.881,205.74C65.083,205.74 38.328,178.989 38.328,146.192C38.328,123.166 52.288,101.766 73.112,92.277L74.463,109.866C62.141,117.627 54.549,131.632 54.549,146.315C54.549,170.103 73.959,189.509 97.75,189.509C119.517,189.509 138.073,172.805 140.609,151.374L151.143,172.943Z" style="fill:white;"/>
    </g>
</svg>
