<?xml version="1.0" encoding="UTF-8" standalone="no"?>
<!DOCTYPE svg PUBLIC "-//W3C//DTD SVG 1.1//EN" "http://www.w3.org/Graphics/SVG/1.1/DTD/svg11.dtd">
<svg width="100%" height="100%" viewBox="0 0 300 34" version="1.1" xmlns="http://www.w3.org/2000/svg" xmlns:xlink="http://www.w3.org/1999/xlink" xml:space="preserve" style="fill-rule:evenodd;clip-rule:evenodd;stroke-linejoin:round;stroke-miterlimit:1.41421;">
    <g transform="matrix(0.639987,-3.79904e-16,3.79904e-16,0.639987,-4.37057e-05,0.994992)">
        <path d="M13.467,49.17L13.467,8.564L0,8.564L0,0L36.188,0L36.188,8.563L22.72,8.563L22.72,49.17L13.467,49.17L13.467,49.17ZM39.343,49.17L39.343,0L47.768,0L47.768,17.68C48.826,16.39 50.22,15.355 51.946,14.572C53.673,13.789 55.663,13.397 57.92,13.397C61.51,13.397 64.388,14.227 66.552,15.884C69.315,18.004 70.696,21.386 70.696,26.034L70.696,49.171L62.27,49.171L62.27,28.454C62.27,26.152 61.753,24.426 60.717,23.274C59.681,22.124 58.127,21.548 56.055,21.548C53.155,21.548 50.991,22.608 49.563,24.725C48.366,26.475 47.768,28.639 47.768,31.215L47.768,49.172L39.343,49.172L39.343,49.17ZM82.74,27.21L99.73,27.21C99.73,25.83 99.13,24.448 97.933,23.066C96.368,21.226 94.319,20.304 91.787,20.304C89.44,20.304 87.471,20.949 85.883,22.237C84.293,23.527 83.247,25.185 82.741,27.21M108.571,33.7L82.74,33.7C82.74,36.234 83.64,38.294 85.434,39.882C87.23,41.472 89.347,42.265 91.787,42.265C93.997,42.265 95.931,41.862 97.587,41.055C99.247,40.251 100.672,38.997 101.87,37.293L108.984,41.436C107.371,43.876 105.369,45.811 102.976,47.236C99.89,49.08 96.16,50 91.786,50C86.263,50 81.9,48.285 78.701,44.855C75.501,41.425 73.901,37.04 73.901,31.698C73.901,26.358 75.501,21.973 78.701,18.543C81.901,15.113 86.264,13.398 91.788,13.398C97.452,13.398 101.71,15.218 104.564,18.854C107.234,22.261 108.57,27.21 108.57,33.701M138.61,49.17L128.53,0L137.854,0L144.621,38.397L144.897,38.397L152.354,0L161.608,0L168.86,37.983L175.56,0L184.88,0L174.8,49.17L164.027,49.17L156.777,13.812L149.387,49.172L138.61,49.172L138.61,49.17ZM191.596,27.21L208.586,27.21C208.586,25.83 207.986,24.448 206.789,23.066C205.222,21.226 203.174,20.304 200.642,20.304C198.295,20.304 196.326,20.949 194.738,22.237C193.148,23.527 192.101,25.185 191.594,27.21M217.424,33.7L191.594,33.7C191.594,36.234 192.492,38.294 194.288,39.882C196.084,41.472 198.201,42.265 200.641,42.265C202.851,42.265 204.785,41.862 206.441,41.055C208.101,40.251 209.526,38.997 210.724,37.293L217.838,41.436C216.225,43.876 214.222,45.811 211.83,47.236C208.744,49.079 205.015,50 200.64,50C195.117,50 190.754,48.285 187.555,44.855C184.355,41.425 182.755,37.04 182.755,31.698C182.755,26.358 184.355,21.973 187.555,18.543C190.755,15.113 195.117,13.398 200.641,13.398C206.305,13.398 210.563,15.218 213.417,18.854C216.087,22.261 217.422,27.21 217.422,33.701M228.71,27.21L245.698,27.21C245.698,25.83 245.098,24.448 243.902,23.066C242.336,21.226 240.288,20.304 237.756,20.304C235.408,20.304 233.44,20.949 231.851,22.237C230.264,23.527 229.216,25.185 228.711,27.21M254.539,33.7L228.709,33.7C228.709,36.234 229.609,38.294 231.403,39.882C233.2,41.472 235.316,42.265 237.757,42.265C239.967,42.265 241.901,41.862 243.557,41.055C245.215,40.251 246.642,38.997 247.84,37.293L254.952,41.436C253.34,43.876 251.337,45.811 248.944,47.236C245.858,49.08 242.13,50 237.756,50C232.231,50 227.868,48.285 224.669,44.855C221.469,41.425 219.869,37.04 219.869,31.698C219.869,26.358 221.469,21.973 224.669,18.543C227.867,15.113 232.229,13.398 237.755,13.398C243.418,13.398 247.675,15.218 250.531,18.854C253.201,22.261 254.537,27.21 254.537,33.701M257.902,49.17L257.902,0L266.327,0L266.327,27.35L279.587,14.228L290.497,14.228L276.964,27.83L291.846,49.17L281.52,49.17L271.093,33.494L266.327,38.191L266.327,49.171L257.902,49.171L257.902,49.17Z" style="fill:white;fill-rule:nonzero;"/>
    </g>
    <g transform="matrix(0.639987,-3.79904e-16,3.79904e-16,0.639987,-4.37057e-05,0.994992)">
        <path d="M297.487,27.21L314.477,27.21C314.477,25.83 313.877,24.448 312.68,23.066C311.114,21.226 309.066,20.304 306.533,20.304C304.185,20.304 302.218,20.949 300.629,22.237C299.039,23.527 297.992,25.185 297.486,27.21M323.314,33.7L297.486,33.7C297.486,36.234 298.384,38.294 300.18,39.882C301.976,41.472 304.093,42.265 306.533,42.265C308.743,42.265 310.678,41.862 312.336,41.055C313.992,40.251 315.419,38.997 316.616,37.293L323.729,41.436C322.116,43.876 320.114,45.811 317.719,47.236C314.637,49.08 310.908,50 306.534,50C301.01,50 296.647,48.285 293.448,44.855C290.248,41.425 288.648,37.04 288.648,31.698C288.648,26.358 290.248,21.973 293.448,18.543C296.648,15.113 301.01,13.398 306.534,13.398C312.198,13.398 316.456,15.218 319.311,18.854C321.981,22.261 323.316,27.21 323.316,33.701M326.68,49.17L326.68,14.227L335.105,14.227L335.105,17.68C336.302,16.253 337.775,15.183 339.525,14.47C341.275,13.755 343.022,13.397 344.773,13.397C348.871,13.397 351.898,14.399 353.855,16.402C355.811,18.405 356.79,21.364 356.79,25.276L356.79,49.17L348.365,49.17L348.365,27.83C348.365,26.035 347.95,24.586 347.121,23.48C346.155,22.192 344.636,21.547 342.565,21.547C340.355,21.547 338.605,22.261 337.315,23.687C335.842,25.3 335.105,27.647 335.105,30.732L335.105,49.172L326.681,49.172L326.68,49.17ZM376.282,21.133C373.382,21.133 371.217,22.261 369.792,24.516C368.592,26.406 367.995,28.798 367.995,31.698C367.995,34.691 368.57,37.085 369.722,38.88C371.148,41.138 373.336,42.265 376.282,42.265C379.182,42.265 381.346,41.138 382.772,38.88C383.97,36.994 384.569,34.6 384.569,31.698C384.569,28.706 383.992,26.312 382.842,24.516C381.414,22.261 379.227,21.133 376.282,21.133M384.292,49.171L384.292,45.787C383.049,47.169 381.678,48.217 380.182,48.931C378.687,49.643 376.742,50.001 374.348,50.001C369.88,50.001 366.232,48.251 363.401,44.751C360.569,41.253 359.154,36.903 359.154,31.699C359.154,26.589 360.58,22.262 363.436,18.716C366.288,15.172 369.926,13.399 374.346,13.399C376.419,13.399 378.248,13.721 379.836,14.366C381.426,15.011 382.909,15.956 384.291,17.198L384.291,0L392.716,0L392.716,49.17L384.291,49.17L384.292,49.171ZM404.004,27.21L420.994,27.21C420.994,25.83 420.394,24.448 419.197,23.066C417.631,21.226 415.583,20.304 413.051,20.304C410.703,20.304 408.736,20.949 407.148,22.237C405.558,23.527 404.512,25.185 404.005,27.21M429.833,33.7L404.005,33.7C404.005,36.234 404.903,38.294 406.699,39.882C408.494,41.472 410.611,42.265 413.052,42.265C415.262,42.265 417.197,41.862 418.855,41.055C420.512,40.251 421.938,38.997 423.135,37.293L430.248,41.436C428.636,43.876 426.634,45.811 424.241,47.236C421.152,49.08 417.423,50 413.05,50C407.526,50 403.163,48.285 399.965,44.855C396.765,41.425 395.165,37.04 395.165,31.698C395.165,26.358 396.765,21.973 399.965,18.543C403.163,15.113 407.525,13.398 413.051,13.398C418.715,13.398 422.973,15.218 425.828,18.854C428.498,22.261 429.833,27.21 429.833,33.701M432.197,49.17L432.197,14.227L440.623,14.227L440.623,19.062C441.681,17.129 443.119,15.702 444.939,14.782C446.756,13.86 448.953,13.399 451.533,13.399L451.533,21.963C448.357,21.963 445.823,22.723 443.936,24.243C441.726,26.038 440.622,28.71 440.622,32.253L440.622,49.173L432.196,49.173L432.197,49.17Z" style="fill:white;fill-rule:nonzero;"/>
    </g>
</svg>
