<?xml version="1.0" encoding="UTF-8" standalone="no"?>
<!DOCTYPE svg PUBLIC "-//W3C//DTD SVG 1.1//EN" "http://www.w3.org/Graphics/SVG/1.1/DTD/svg11.dtd">
<svg width="100%" height="100%" viewBox="0 0 270 34" version="1.1" xmlns="http://www.w3.org/2000/svg" xmlns:xlink="http://www.w3.org/1999/xlink" xml:space="preserve" style="fill-rule:evenodd;clip-rule:evenodd;stroke-linejoin:round;stroke-miterlimit:1.41421;">
    <g transform="matrix(1,0,0,1,-20.8413,-109.674)">
        <path d="M30.159,117.333L30.159,139.449L36.125,139.449L36.125,117.333L44.257,117.333L44.257,112.317L22.027,112.317L22.027,117.333L30.159,117.333Z" style="fill:white;fill-rule:nonzero;"/>
        <path d="M45.283,112.317L45.283,139.449L50.679,139.449L50.679,129.151C50.679,127.149 51.009,125.712 51.667,124.838C52.326,123.964 53.39,123.527 54.859,123.527C56.151,123.527 57.051,123.926 57.557,124.724C58.064,125.522 58.317,126.731 58.317,128.353L58.317,139.449L63.713,139.449L63.713,127.365C63.713,126.149 63.606,125.04 63.39,124.04C63.175,123.039 62.801,122.19 62.269,121.494C61.737,120.797 61.009,120.252 60.084,119.86C59.16,119.467 57.975,119.271 56.531,119.271C55.518,119.271 54.479,119.53 53.415,120.05C52.351,120.569 51.477,121.399 50.793,122.539L50.679,122.539L50.679,112.317L45.283,112.317Z" style="fill:white;fill-rule:nonzero;"/>
        <path d="M79.521,127.517L70.743,127.517C70.769,127.137 70.851,126.706 70.99,126.225C71.13,125.743 71.37,125.287 71.712,124.857C72.054,124.426 72.51,124.065 73.08,123.774C73.65,123.482 74.366,123.337 75.227,123.337C76.545,123.337 77.526,123.691 78.172,124.401C78.818,125.11 79.268,126.149 79.521,127.517ZM70.743,130.937L84.917,130.937C85.019,129.417 84.892,127.96 84.537,126.567C84.183,125.173 83.606,123.932 82.808,122.843C82.01,121.753 80.991,120.886 79.749,120.24C78.508,119.594 77.051,119.271 75.379,119.271C73.885,119.271 72.523,119.537 71.294,120.069C70.066,120.601 69.008,121.329 68.121,122.254C67.235,123.178 66.551,124.274 66.069,125.541C65.588,126.807 65.347,128.175 65.347,129.645C65.347,131.165 65.582,132.558 66.05,133.825C66.519,135.091 67.184,136.181 68.045,137.093C68.907,138.005 69.958,138.708 71.199,139.202C72.441,139.696 73.834,139.943 75.379,139.943C77.609,139.943 79.509,139.436 81.079,138.423C82.65,137.409 83.815,135.725 84.575,133.369L79.825,133.369C79.648,133.977 79.167,134.553 78.381,135.098C77.596,135.642 76.659,135.915 75.569,135.915C74.049,135.915 72.884,135.522 72.073,134.737C71.263,133.951 70.819,132.685 70.743,130.937Z" style="fill:white;fill-rule:nonzero;"/>
        <path d="M122.423,139.449L129.719,112.317L123.867,112.317L119.421,131.013L119.345,131.013L114.709,112.317L109.123,112.317L104.411,130.785L104.335,130.785L100.041,112.317L94.075,112.317L101.257,139.449L107.299,139.449L111.821,120.981L111.897,120.981L116.495,139.449L122.423,139.449Z" style="fill:white;fill-rule:nonzero;"/>
        <path d="M143.779,127.517L135.001,127.517C135.027,127.137 135.109,126.706 135.248,126.225C135.388,125.743 135.628,125.287 135.97,124.857C136.312,124.426 136.768,124.065 137.338,123.774C137.908,123.482 138.624,123.337 139.485,123.337C140.803,123.337 141.784,123.691 142.43,124.401C143.076,125.11 143.526,126.149 143.779,127.517ZM135.001,130.937L149.175,130.937C149.277,129.417 149.15,127.96 148.795,126.567C148.441,125.173 147.864,123.932 147.066,122.843C146.268,121.753 145.249,120.886 144.007,120.24C142.766,119.594 141.309,119.271 139.637,119.271C138.143,119.271 136.781,119.537 135.552,120.069C134.324,120.601 133.266,121.329 132.379,122.254C131.493,123.178 130.809,124.274 130.327,125.541C129.846,126.807 129.605,128.175 129.605,129.645C129.605,131.165 129.84,132.558 130.308,133.825C130.777,135.091 131.442,136.181 132.303,137.093C133.165,138.005 134.216,138.708 135.457,139.202C136.699,139.696 138.092,139.943 139.637,139.943C141.867,139.943 143.767,139.436 145.337,138.423C146.908,137.409 148.073,135.725 148.833,133.369L144.083,133.369C143.906,133.977 143.425,134.553 142.639,135.098C141.854,135.642 140.917,135.915 139.827,135.915C138.307,135.915 137.142,135.522 136.331,134.737C135.521,133.951 135.077,132.685 135.001,130.937Z" style="fill:white;fill-rule:nonzero;"/>
        <path d="M164.261,127.517L155.483,127.517C155.509,127.137 155.591,126.706 155.73,126.225C155.87,125.743 156.11,125.287 156.452,124.857C156.794,124.426 157.25,124.065 157.82,123.774C158.39,123.482 159.106,123.337 159.967,123.337C161.285,123.337 162.266,123.691 162.912,124.401C163.558,125.11 164.008,126.149 164.261,127.517ZM155.483,130.937L169.657,130.937C169.759,129.417 169.632,127.96 169.277,126.567C168.923,125.173 168.346,123.932 167.548,122.843C166.75,121.753 165.731,120.886 164.489,120.24C163.248,119.594 161.791,119.271 160.119,119.271C158.625,119.271 157.263,119.537 156.034,120.069C154.806,120.601 153.748,121.329 152.861,122.254C151.975,123.178 151.291,124.274 150.809,125.541C150.328,126.807 150.087,128.175 150.087,129.645C150.087,131.165 150.322,132.558 150.79,133.825C151.259,135.091 151.924,136.181 152.785,137.093C153.647,138.005 154.698,138.708 155.939,139.202C157.181,139.696 158.574,139.943 160.119,139.943C162.349,139.943 164.249,139.436 165.819,138.423C167.39,137.409 168.555,135.725 169.315,133.369L164.565,133.369C164.388,133.977 163.907,134.553 163.121,135.098C162.336,135.642 161.399,135.915 160.309,135.915C158.789,135.915 157.624,135.522 156.813,134.737C156.003,133.951 155.559,132.685 155.483,130.937Z" style="fill:white;fill-rule:nonzero;"/>
        <path d="M172.013,112.317L172.013,139.449L177.409,139.449L177.409,132.685L179.499,130.671L184.895,139.449L191.431,139.449L183.185,127.023L190.595,119.803L184.211,119.803L177.409,126.871L177.409,112.317L172.013,112.317Z" style="fill:white;fill-rule:nonzero;"/>
        <path d="M205.225,127.517L196.447,127.517C196.473,127.137 196.555,126.706 196.694,126.225C196.834,125.743 197.074,125.287 197.416,124.857C197.758,124.426 198.214,124.065 198.784,123.774C199.354,123.482 200.07,123.337 200.931,123.337C202.249,123.337 203.23,123.691 203.876,124.401C204.522,125.11 204.972,126.149 205.225,127.517ZM196.447,130.937L210.621,130.937C210.723,129.417 210.596,127.96 210.241,126.567C209.887,125.173 209.31,123.932 208.512,122.843C207.714,121.753 206.695,120.886 205.453,120.24C204.212,119.594 202.755,119.271 201.083,119.271C199.589,119.271 198.227,119.537 196.998,120.069C195.77,120.601 194.712,121.329 193.825,122.254C192.939,123.178 192.255,124.274 191.773,125.541C191.292,126.807 191.051,128.175 191.051,129.645C191.051,131.165 191.286,132.558 191.754,133.825C192.223,135.091 192.888,136.181 193.749,137.093C194.611,138.005 195.662,138.708 196.903,139.202C198.145,139.696 199.538,139.943 201.083,139.943C203.313,139.943 205.213,139.436 206.783,138.423C208.354,137.409 209.519,135.725 210.279,133.369L205.529,133.369C205.352,133.977 204.871,134.553 204.085,135.098C203.3,135.642 202.363,135.915 201.273,135.915C199.753,135.915 198.588,135.522 197.777,134.737C196.967,133.951 196.523,132.685 196.447,130.937Z" style="fill:white;fill-rule:nonzero;"/>
        <path d="M212.483,119.803L212.483,139.449L217.879,139.449L217.879,129.151C217.879,127.149 218.209,125.712 218.867,124.838C219.526,123.964 220.59,123.527 222.059,123.527C223.351,123.527 224.251,123.926 224.757,124.724C225.264,125.522 225.517,126.731 225.517,128.353L225.517,139.449L230.913,139.449L230.913,127.365C230.913,126.149 230.806,125.04 230.59,124.04C230.375,123.039 230.001,122.19 229.469,121.494C228.937,120.797 228.209,120.252 227.284,119.86C226.36,119.467 225.175,119.271 223.731,119.271C222.591,119.271 221.477,119.53 220.387,120.05C219.298,120.569 218.411,121.399 217.727,122.539L217.613,122.539L217.613,119.803L212.483,119.803Z" style="fill:white;fill-rule:nonzero;"/>
        <path d="M247.633,129.569C247.633,130.379 247.557,131.165 247.405,131.925C247.253,132.685 247,133.362 246.645,133.958C246.291,134.553 245.816,135.028 245.22,135.383C244.625,135.737 243.884,135.915 242.997,135.915C242.161,135.915 241.446,135.731 240.85,135.364C240.255,134.996 239.761,134.515 239.368,133.92C238.976,133.324 238.691,132.647 238.513,131.887C238.336,131.127 238.247,130.367 238.247,129.607C238.247,128.796 238.33,128.017 238.494,127.27C238.659,126.522 238.925,125.857 239.292,125.275C239.66,124.692 240.147,124.223 240.755,123.869C241.363,123.514 242.111,123.337 242.997,123.337C243.884,123.337 244.619,123.514 245.201,123.869C245.784,124.223 246.259,124.686 246.626,125.256C246.994,125.826 247.253,126.484 247.405,127.232C247.557,127.979 247.633,128.758 247.633,129.569ZM247.709,136.941L247.709,139.449L252.839,139.449L252.839,112.317L247.443,112.317L247.443,122.197L247.367,122.197C246.759,121.234 245.93,120.506 244.878,120.012C243.827,119.518 242.719,119.271 241.553,119.271C240.109,119.271 238.843,119.556 237.753,120.126C236.664,120.696 235.758,121.449 235.036,122.387C234.314,123.324 233.77,124.407 233.402,125.636C233.035,126.864 232.851,128.137 232.851,129.455C232.851,130.823 233.035,132.14 233.402,133.407C233.77,134.673 234.314,135.794 235.036,136.77C235.758,137.745 236.677,138.518 237.791,139.088C238.906,139.658 240.198,139.943 241.667,139.943C242.959,139.943 244.118,139.708 245.144,139.24C246.17,138.771 247,138.005 247.633,136.941L247.709,136.941Z" style="fill:white;fill-rule:nonzero;"/>
        <path d="M268.799,127.517L260.021,127.517C260.047,127.137 260.129,126.706 260.268,126.225C260.408,125.743 260.648,125.287 260.99,124.857C261.332,124.426 261.788,124.065 262.358,123.774C262.928,123.482 263.644,123.337 264.505,123.337C265.823,123.337 266.804,123.691 267.45,124.401C268.096,125.11 268.546,126.149 268.799,127.517ZM260.021,130.937L274.195,130.937C274.297,129.417 274.17,127.96 273.815,126.567C273.461,125.173 272.884,123.932 272.086,122.843C271.288,121.753 270.269,120.886 269.027,120.24C267.786,119.594 266.329,119.271 264.657,119.271C263.163,119.271 261.801,119.537 260.572,120.069C259.344,120.601 258.286,121.329 257.399,122.254C256.513,123.178 255.829,124.274 255.347,125.541C254.866,126.807 254.625,128.175 254.625,129.645C254.625,131.165 254.86,132.558 255.328,133.825C255.797,135.091 256.462,136.181 257.323,137.093C258.185,138.005 259.236,138.708 260.477,139.202C261.719,139.696 263.112,139.943 264.657,139.943C266.887,139.943 268.787,139.436 270.357,138.423C271.928,137.409 273.093,135.725 273.853,133.369L269.103,133.369C268.926,133.977 268.445,134.553 267.659,135.098C266.874,135.642 265.937,135.915 264.847,135.915C263.327,135.915 262.162,135.522 261.351,134.737C260.541,133.951 260.097,132.685 260.021,130.937Z" style="fill:white;fill-rule:nonzero;"/>
        <path d="M276.057,119.803L276.057,139.449L281.453,139.449L281.453,130.595C281.453,129.708 281.542,128.885 281.719,128.125C281.897,127.365 282.194,126.7 282.612,126.13C283.03,125.56 283.581,125.11 284.265,124.781C284.949,124.451 285.785,124.287 286.773,124.287C287.103,124.287 287.445,124.306 287.799,124.344C288.154,124.382 288.458,124.426 288.711,124.477L288.711,119.461C288.281,119.334 287.888,119.271 287.533,119.271C286.849,119.271 286.191,119.372 285.557,119.575C284.924,119.777 284.329,120.062 283.771,120.43C283.214,120.797 282.72,121.24 282.289,121.76C281.859,122.279 281.517,122.843 281.263,123.451L281.187,123.451L281.187,119.803L276.057,119.803Z" style="fill:white;fill-rule:nonzero;"/>
    </g>
</svg>
