<?xml version="1.0" standalone="no"?>
<!DOCTYPE svg PUBLIC "-//W3C//DTD SVG 20010904//EN"
 "http://www.w3.org/TR/2001/REC-SVG-20010904/DTD/svg10.dtd">
<svg version="1.0" xmlns="http://www.w3.org/2000/svg"
 width="260.000000pt" height="260.000000pt" viewBox="0 0 260.000000 260.000000"
 preserveAspectRatio="xMidYMid meet">
<metadata>
Created by potrace 1.11, written by Peter Selinger 2001-2013
</metadata>
<g transform="translate(0.000000,260.000000) scale(0.100000,-0.100000)"
fill="#000000" stroke="none">
<path d="M0 2520 l0 -80 1300 0 1300 0 0 80 0 80 -1300 0 -1300 0 0 -80z"/>
<path d="M0 1140 l0 -1140 1300 0 1300 0 0 1140 0 1140 -1300 0 -1300 0 0
-1140z m425 948 c3 -13 43 -187 90 -387 46 -200 85 -365 87 -367 2 -1 48 172
103 387 l99 389 121 0 122 0 98 -397 c62 -253 100 -390 105 -378 3 11 46 190
96 398 l89 377 127 0 126 0 -29 -107 c-16 -60 -86 -321 -156 -580 l-126 -473
-129 0 -128 0 -7 28 c-3 15 -48 191 -98 392 -56 223 -94 357 -98 345 -3 -11
-45 -180 -92 -375 -47 -195 -88 -363 -91 -373 -5 -16 -18 -17 -136 -15 l-131
3 -109 410 c-59 226 -128 485 -152 578 l-44 167 129 0 c125 0 129 -1 134 -22z"/>
</g>
</svg>
